<mxfile modified="2022-02-11T16:20:27.689Z" host="app.diagrams.net" agent="5.0 (X11; Linux x86_64) AppleWebKit/537.36 (KHTML, like Gecko) Chrome/98.0.4758.80 Safari/537.36" etag="yIRNeCfMyJqMqL05tjuC" version="16.5.6" type="github">
  <diagram id="Ht1M8jgEwFfnCIfOTk4-" name="Page-1">
    <mxGraphModel dx="1189" dy="595" grid="1" gridSize="10" guides="1" tooltips="1" connect="1" arrows="1" fold="1" page="1" pageScale="1" pageWidth="1169" pageHeight="827" math="0" shadow="0">
      <root>
        <mxCell id="0" />
        <mxCell id="1" parent="0" />
        <mxCell id="-QjtrjUzRDEMRZ5MF8oH-47" value="AWS Code Pipeline" style="text;html=1;resizable=0;points=[];autosize=1;align=left;verticalAlign=top;spacingTop=-4;fontSize=30;fontStyle=1" parent="1" vertex="1">
          <mxGeometry x="56.5" y="10" width="290" height="40" as="geometry" />
        </mxCell>
        <mxCell id="-QjtrjUzRDEMRZ5MF8oH-48" value="Subtitle text&lt;br style=&quot;font-size: 16px&quot;&gt;" style="text;html=1;resizable=0;points=[];autosize=1;align=left;verticalAlign=top;spacingTop=-4;fontSize=16" parent="1" vertex="1">
          <mxGeometry x="56.5" y="60" width="100" height="20" as="geometry" />
        </mxCell>
        <mxCell id="SCVMTBWpLvtzJIhz15lM-1" value="" style="line;strokeWidth=2;html=1;fontSize=14;" parent="1" vertex="1">
          <mxGeometry x="52.5" y="85" width="1060" height="10" as="geometry" />
        </mxCell>
        <mxCell id="k1J5Uft5zTIaOylSxwT3-1" value="" style="rounded=0;whiteSpace=wrap;html=1;fillColor=#EAEDED;fontSize=22;fontColor=#FFFFFF;strokeColor=none;labelBackgroundColor=none;" parent="1" vertex="1">
          <mxGeometry x="1420" y="40" width="539" height="1350" as="geometry" />
        </mxCell>
        <mxCell id="k1J5Uft5zTIaOylSxwT3-2" value="1" style="rounded=1;whiteSpace=wrap;html=1;fillColor=#007CBD;strokeColor=none;fontColor=#FFFFFF;fontStyle=1;fontSize=22;labelBackgroundColor=none;" parent="1" vertex="1">
          <mxGeometry x="1438.5" y="52.5" width="40" height="38" as="geometry" />
        </mxCell>
        <mxCell id="k1J5Uft5zTIaOylSxwT3-3" value="2" style="rounded=1;whiteSpace=wrap;html=1;fillColor=#007CBD;strokeColor=none;fontColor=#FFFFFF;fontStyle=1;fontSize=22;labelBackgroundColor=none;" parent="1" vertex="1">
          <mxGeometry x="1437" y="174.5" width="40" height="38" as="geometry" />
        </mxCell>
        <mxCell id="k1J5Uft5zTIaOylSxwT3-4" value="3" style="rounded=1;whiteSpace=wrap;html=1;fillColor=#007CBD;strokeColor=none;fontColor=#FFFFFF;fontStyle=1;fontSize=22;labelBackgroundColor=none;" parent="1" vertex="1">
          <mxGeometry x="1437" y="294.5" width="40" height="38" as="geometry" />
        </mxCell>
        <mxCell id="k1J5Uft5zTIaOylSxwT3-5" value="4" style="rounded=1;whiteSpace=wrap;html=1;fillColor=#007CBD;strokeColor=none;fontColor=#FFFFFF;fontStyle=1;fontSize=22;labelBackgroundColor=none;" parent="1" vertex="1">
          <mxGeometry x="1437" y="408.5" width="40" height="38" as="geometry" />
        </mxCell>
        <mxCell id="k1J5Uft5zTIaOylSxwT3-6" value="5" style="rounded=1;whiteSpace=wrap;html=1;fillColor=#007CBD;strokeColor=none;fontColor=#FFFFFF;fontStyle=1;fontSize=22;labelBackgroundColor=none;" parent="1" vertex="1">
          <mxGeometry x="1438.5" y="525.5" width="40" height="38" as="geometry" />
        </mxCell>
        <mxCell id="k1J5Uft5zTIaOylSxwT3-7" value="6" style="rounded=1;whiteSpace=wrap;html=1;fillColor=#007CBD;strokeColor=none;fontColor=#FFFFFF;fontStyle=1;fontSize=22;labelBackgroundColor=none;" parent="1" vertex="1">
          <mxGeometry x="1439.5" y="640.5" width="40" height="38" as="geometry" />
        </mxCell>
        <mxCell id="k1J5Uft5zTIaOylSxwT3-8" value="7" style="rounded=1;whiteSpace=wrap;html=1;fillColor=#007CBD;strokeColor=none;fontColor=#FFFFFF;fontStyle=1;fontSize=22;labelBackgroundColor=none;" parent="1" vertex="1">
          <mxGeometry x="1439" y="756.5" width="40" height="38" as="geometry" />
        </mxCell>
        <mxCell id="k1J5Uft5zTIaOylSxwT3-9" value="8" style="rounded=1;whiteSpace=wrap;html=1;fillColor=#007CBD;strokeColor=none;fontColor=#FFFFFF;fontStyle=1;fontSize=22;labelBackgroundColor=none;" parent="1" vertex="1">
          <mxGeometry x="1439.5" y="874.5" width="40" height="38" as="geometry" />
        </mxCell>
        <mxCell id="k1J5Uft5zTIaOylSxwT3-10" value="9" style="rounded=1;whiteSpace=wrap;html=1;fillColor=#007CBD;strokeColor=none;fontColor=#FFFFFF;fontStyle=1;fontSize=22;labelBackgroundColor=none;" parent="1" vertex="1">
          <mxGeometry x="1437.5" y="994.5" width="40" height="38" as="geometry" />
        </mxCell>
        <mxCell id="k1J5Uft5zTIaOylSxwT3-11" value="&lt;span&gt;Lorem ipsum dolor sit amet, consectetur adipiscing elit, sed do eiusmod tempor incididunt ut labore et dolore magna aliqua. Ut enim ad minim veniam, quis nostrud exercitation ullamco laboris nisi ut aliquip ex ea commodo consequat. Duis aute irure dolor in reprehenderit in voluptate velit esse cillum dolore eu fugiat nulla pariatur. Excepteur sint occaecat cupidatat non proident, sunt in culpa qui officia deserunt mollit anim id est laborum.&lt;/span&gt;&lt;br&gt;" style="text;html=1;align=left;verticalAlign=top;spacingTop=-4;fontSize=14;labelBackgroundColor=none;whiteSpace=wrap;" parent="1" vertex="1">
          <mxGeometry x="1490" y="52" width="449" height="118" as="geometry" />
        </mxCell>
        <mxCell id="k1J5Uft5zTIaOylSxwT3-12" value="&lt;span&gt;Lorem ipsum dolor sit amet, consectetur adipiscing elit, sed do eiusmod tempor incididunt ut labore et dolore magna aliqua. Ut enim ad minim veniam, quis nostrud exercitation ullamco laboris nisi ut aliquip ex ea commodo consequat. Duis aute irure dolor in reprehenderit in voluptate velit esse cillum dolore eu fugiat nulla pariatur. Excepteur sint occaecat cupidatat non proident, sunt in culpa qui officia deserunt mollit anim id est laborum.&lt;/span&gt;&lt;br&gt;" style="text;html=1;align=left;verticalAlign=top;spacingTop=-4;fontSize=14;labelBackgroundColor=none;whiteSpace=wrap;" parent="1" vertex="1">
          <mxGeometry x="1489" y="175" width="450" height="115" as="geometry" />
        </mxCell>
        <mxCell id="k1J5Uft5zTIaOylSxwT3-13" value="&lt;span&gt;Lorem ipsum dolor sit amet, consectetur adipiscing elit, sed do eiusmod tempor incididunt ut labore et dolore magna aliqua. Ut enim ad minim veniam, quis nostrud exercitation ullamco laboris nisi ut aliquip ex ea commodo consequat. Duis aute irure dolor in reprehenderit in voluptate velit esse cillum dolore eu fugiat nulla pariatur. Excepteur sint occaecat cupidatat non proident, sunt in culpa qui officia deserunt mollit anim id est laborum.&lt;/span&gt;&lt;br&gt;" style="text;html=1;align=left;verticalAlign=top;spacingTop=-4;fontSize=14;labelBackgroundColor=none;whiteSpace=wrap;" parent="1" vertex="1">
          <mxGeometry x="1489" y="293" width="450" height="117" as="geometry" />
        </mxCell>
        <mxCell id="k1J5Uft5zTIaOylSxwT3-14" value="&lt;span&gt;Lorem ipsum dolor sit amet, consectetur adipiscing elit, sed do eiusmod tempor incididunt ut labore et dolore magna aliqua. Ut enim ad minim veniam, quis nostrud exercitation ullamco laboris nisi ut aliquip ex ea commodo consequat. Duis aute irure dolor in reprehenderit in voluptate velit esse cillum dolore eu fugiat nulla pariatur. Excepteur sint occaecat cupidatat non proident, sunt in culpa qui officia deserunt mollit anim id est laborum.&lt;/span&gt;&lt;br&gt;" style="text;html=1;align=left;verticalAlign=top;spacingTop=-4;fontSize=14;labelBackgroundColor=none;whiteSpace=wrap;" parent="1" vertex="1">
          <mxGeometry x="1489" y="409" width="450" height="121" as="geometry" />
        </mxCell>
        <mxCell id="k1J5Uft5zTIaOylSxwT3-15" value="&lt;span&gt;Lorem ipsum dolor sit amet, consectetur adipiscing elit, sed do eiusmod tempor incididunt ut labore et dolore magna aliqua. Ut enim ad minim veniam, quis nostrud exercitation ullamco laboris nisi ut aliquip ex ea commodo consequat. Duis aute irure dolor in reprehenderit in voluptate velit esse cillum dolore eu fugiat nulla pariatur. Excepteur sint occaecat cupidatat non proident, sunt in culpa qui officia deserunt mollit anim id est laborum.&lt;/span&gt;&lt;br&gt;" style="text;html=1;align=left;verticalAlign=top;spacingTop=-4;fontSize=14;labelBackgroundColor=none;whiteSpace=wrap;" parent="1" vertex="1">
          <mxGeometry x="1490" y="526" width="449" height="114" as="geometry" />
        </mxCell>
        <mxCell id="k1J5Uft5zTIaOylSxwT3-16" value="&lt;span&gt;Lorem ipsum dolor sit amet, consectetur adipiscing elit, sed do eiusmod tempor incididunt ut labore et dolore magna aliqua. Ut enim ad minim veniam, quis nostrud exercitation ullamco laboris nisi ut aliquip ex ea commodo consequat. Duis aute irure dolor in reprehenderit in voluptate velit esse cillum dolore eu fugiat nulla pariatur. Excepteur sint occaecat cupidatat non proident, sunt in culpa qui officia deserunt mollit anim id est laborum.&lt;/span&gt;&lt;br&gt;" style="text;html=1;align=left;verticalAlign=top;spacingTop=-4;fontSize=14;labelBackgroundColor=none;whiteSpace=wrap;" parent="1" vertex="1">
          <mxGeometry x="1490" y="642" width="450" height="118" as="geometry" />
        </mxCell>
        <mxCell id="k1J5Uft5zTIaOylSxwT3-17" value="&lt;span&gt;Lorem ipsum dolor sit amet, consectetur adipiscing elit, sed do eiusmod tempor incididunt ut labore et dolore magna aliqua. Ut enim ad minim veniam, quis nostrud exercitation ullamco laboris nisi ut aliquip ex ea commodo consequat. Duis aute irure dolor in reprehenderit in voluptate velit esse cillum dolore eu fugiat nulla pariatur. Excepteur sint occaecat cupidatat non proident, sunt in culpa qui officia deserunt mollit anim id est laborum.&lt;/span&gt;&lt;br&gt;" style="text;html=1;align=left;verticalAlign=top;spacingTop=-4;fontSize=14;labelBackgroundColor=none;whiteSpace=wrap;" parent="1" vertex="1">
          <mxGeometry x="1490" y="757" width="449" height="113" as="geometry" />
        </mxCell>
        <mxCell id="k1J5Uft5zTIaOylSxwT3-18" value="&lt;span&gt;Lorem ipsum dolor sit amet, consectetur adipiscing elit, sed do eiusmod tempor incididunt ut labore et dolore magna aliqua. Ut enim ad minim veniam, quis nostrud exercitation ullamco laboris nisi ut aliquip ex ea commodo consequat. Duis aute irure dolor in reprehenderit in voluptate velit esse cillum dolore eu fugiat nulla pariatur. Excepteur sint occaecat cupidatat non proident, sunt in culpa qui officia deserunt mollit anim id est laborum.&lt;/span&gt;&lt;br&gt;" style="text;html=1;align=left;verticalAlign=top;spacingTop=-4;fontSize=14;labelBackgroundColor=none;whiteSpace=wrap;" parent="1" vertex="1">
          <mxGeometry x="1490" y="876" width="449" height="124" as="geometry" />
        </mxCell>
        <mxCell id="k1J5Uft5zTIaOylSxwT3-19" value="&lt;span&gt;Lorem ipsum dolor sit amet, consectetur adipiscing elit, sed do eiusmod tempor incididunt ut labore et dolore magna aliqua. Ut enim ad minim veniam, quis nostrud exercitation ullamco laboris nisi ut aliquip ex ea commodo consequat. Duis aute irure dolor in reprehenderit in voluptate velit esse cillum dolore eu fugiat nulla pariatur. Excepteur sint occaecat cupidatat non proident, sunt in culpa qui officia deserunt mollit anim id est laborum.&lt;/span&gt;&lt;br&gt;" style="text;html=1;align=left;verticalAlign=top;spacingTop=-4;fontSize=14;labelBackgroundColor=none;whiteSpace=wrap;" parent="1" vertex="1">
          <mxGeometry x="1490" y="995" width="449" height="115" as="geometry" />
        </mxCell>
        <mxCell id="k1J5Uft5zTIaOylSxwT3-22" value="10" style="rounded=1;whiteSpace=wrap;html=1;fillColor=#007CBD;strokeColor=none;fontColor=#FFFFFF;fontStyle=1;fontSize=22;labelBackgroundColor=none;" parent="1" vertex="1">
          <mxGeometry x="1438.5" y="1120" width="40" height="38" as="geometry" />
        </mxCell>
        <mxCell id="k1J5Uft5zTIaOylSxwT3-23" value="&lt;span&gt;Lorem ipsum dolor sit amet, consectetur adipiscing elit, sed do eiusmod tempor incididunt ut labore et dolore magna aliqua. Ut enim ad minim veniam, quis nostrud exercitation ullamco laboris nisi ut aliquip ex ea commodo consequat. Duis aute irure dolor in reprehenderit in voluptate velit esse cillum dolore eu fugiat nulla pariatur. Excepteur sint occaecat cupidatat non proident, sunt in culpa qui officia deserunt mollit anim id est laborum.&lt;/span&gt;&lt;br&gt;" style="text;html=1;align=left;verticalAlign=top;spacingTop=-4;fontSize=14;labelBackgroundColor=none;whiteSpace=wrap;" parent="1" vertex="1">
          <mxGeometry x="1491" y="1120.5" width="449" height="115" as="geometry" />
        </mxCell>
        <mxCell id="k1J5Uft5zTIaOylSxwT3-24" value="11" style="rounded=1;whiteSpace=wrap;html=1;fillColor=#007CBD;strokeColor=none;fontColor=#FFFFFF;fontStyle=1;fontSize=22;labelBackgroundColor=none;" parent="1" vertex="1">
          <mxGeometry x="1437" y="1240" width="40" height="38" as="geometry" />
        </mxCell>
        <mxCell id="k1J5Uft5zTIaOylSxwT3-25" value="&lt;span&gt;Lorem ipsum dolor sit amet, consectetur adipiscing elit, sed do eiusmod tempor incididunt ut labore et dolore magna aliqua. Ut enim ad minim veniam, quis nostrud exercitation ullamco laboris nisi ut aliquip ex ea commodo consequat. Duis aute irure dolor in reprehenderit in voluptate velit esse cillum dolore eu fugiat nulla pariatur. Excepteur sint occaecat cupidatat non proident, sunt in culpa qui officia deserunt mollit anim id est laborum.&lt;/span&gt;&lt;br&gt;" style="text;html=1;align=left;verticalAlign=top;spacingTop=-4;fontSize=14;labelBackgroundColor=none;whiteSpace=wrap;" parent="1" vertex="1">
          <mxGeometry x="1489.5" y="1240.5" width="449" height="115" as="geometry" />
        </mxCell>
        <mxCell id="XYdIHO70fzB0IHr7sK7h-2" value="" style="endArrow=classic;html=1;rounded=0;fontColor=#000000;startArrow=none;" edge="1" parent="1" source="XYdIHO70fzB0IHr7sK7h-3" target="XYdIHO70fzB0IHr7sK7h-9">
          <mxGeometry width="50" height="50" relative="1" as="geometry">
            <mxPoint x="106" y="204" as="sourcePoint" />
            <mxPoint x="598" y="102" as="targetPoint" />
          </mxGeometry>
        </mxCell>
        <mxCell id="XYdIHO70fzB0IHr7sK7h-9" value="" style="outlineConnect=0;dashed=0;verticalLabelPosition=bottom;verticalAlign=top;align=center;html=1;shape=mxgraph.aws3.cloudformation;fillColor=#759C3E;gradientColor=none;glass=1;sketch=0;fontColor=#000000;strokeColor=default;" vertex="1" parent="1">
          <mxGeometry x="560" y="95" width="76.5" height="93" as="geometry" />
        </mxCell>
        <mxCell id="XYdIHO70fzB0IHr7sK7h-10" value="&lt;font size=&quot;1&quot;&gt;&lt;b style=&quot;font-size: 18px&quot;&gt;Cloud Formation&lt;/b&gt;&lt;/font&gt;" style="text;html=1;align=center;verticalAlign=middle;resizable=0;points=[];autosize=1;strokeColor=none;fillColor=none;fontColor=#000000;" vertex="1" parent="1">
          <mxGeometry x="518.25" y="195" width="160" height="20" as="geometry" />
        </mxCell>
        <mxCell id="XYdIHO70fzB0IHr7sK7h-3" value="" style="sketch=0;outlineConnect=0;fontColor=#232F3E;gradientColor=none;fillColor=#232F3D;strokeColor=none;dashed=0;verticalLabelPosition=bottom;verticalAlign=top;align=center;html=1;fontSize=12;fontStyle=0;aspect=fixed;pointerEvents=1;shape=mxgraph.aws4.external_sdk;" vertex="1" parent="1">
          <mxGeometry x="72.5" y="95" width="68" height="78" as="geometry" />
        </mxCell>
        <mxCell id="XYdIHO70fzB0IHr7sK7h-12" value="&lt;span style=&quot;font-family: &amp;#34;noto_regular&amp;#34;&quot;&gt;&lt;b&gt;&lt;font style=&quot;font-size: 18px&quot;&gt;AWS Code Pipeline&lt;/font&gt;&lt;/b&gt;&lt;/span&gt;" style="text;html=1;align=center;verticalAlign=middle;resizable=0;points=[];autosize=1;strokeColor=none;fillColor=none;fontSize=14;fontColor=#000000;" vertex="1" parent="1">
          <mxGeometry x="21.5" y="175" width="170" height="20" as="geometry" />
        </mxCell>
        <mxCell id="XYdIHO70fzB0IHr7sK7h-13" value="" style="swimlane;startSize=0;glass=1;sketch=0;fontSize=18.6667;fontColor=#000000;strokeColor=default;fillColor=none;" vertex="1" parent="1">
          <mxGeometry x="40" y="240" width="1360" height="510" as="geometry" />
        </mxCell>
        <mxCell id="XYdIHO70fzB0IHr7sK7h-4" value="" style="outlineConnect=0;dashed=0;verticalLabelPosition=bottom;verticalAlign=top;align=center;html=1;shape=mxgraph.aws3.codepipeline;fillColor=#759C3E;gradientColor=none;fontColor=#000000;" vertex="1" parent="XYdIHO70fzB0IHr7sK7h-13">
          <mxGeometry x="32.5" y="20" width="67.5" height="81" as="geometry" />
        </mxCell>
        <mxCell id="XYdIHO70fzB0IHr7sK7h-5" value="&lt;font style=&quot;font-size: 14px&quot;&gt;&lt;b&gt;Code Pipeline&lt;/b&gt;&lt;/font&gt;" style="text;html=1;align=center;verticalAlign=middle;resizable=0;points=[];autosize=1;strokeColor=none;fillColor=none;fontColor=#000000;" vertex="1" parent="XYdIHO70fzB0IHr7sK7h-13">
          <mxGeometry x="11.25" y="107.5" width="110" height="20" as="geometry" />
        </mxCell>
        <mxCell id="XYdIHO70fzB0IHr7sK7h-17" value="" style="outlineConnect=0;dashed=0;verticalLabelPosition=bottom;verticalAlign=top;align=center;html=1;shape=mxgraph.aws3.cloudformation;fillColor=#759C3E;gradientColor=none;glass=1;sketch=0;fontColor=#000000;strokeColor=default;" vertex="1" parent="XYdIHO70fzB0IHr7sK7h-13">
          <mxGeometry x="160" y="14.5" width="76.5" height="93" as="geometry" />
        </mxCell>
        <mxCell id="XYdIHO70fzB0IHr7sK7h-18" value="&lt;span style=&quot;color: rgb(22 , 25 , 31) ; font-family: &amp;#34;amazon ember&amp;#34; , &amp;#34;helvetica neue&amp;#34; , &amp;#34;roboto&amp;#34; , &amp;#34;arial&amp;#34; , sans-serif ; background-color: rgb(255 , 255 , 255)&quot;&gt;&lt;font size=&quot;1&quot;&gt;&lt;b style=&quot;font-size: 14px&quot;&gt;AWS::CDK::Metadata&lt;/b&gt;&lt;/font&gt;&lt;/span&gt;" style="text;html=1;align=center;verticalAlign=middle;resizable=0;points=[];autosize=1;strokeColor=none;fillColor=none;fontSize=18;fontColor=#000000;" vertex="1" parent="XYdIHO70fzB0IHr7sK7h-13">
          <mxGeometry x="130" y="102.5" width="150" height="30" as="geometry" />
        </mxCell>
        <mxCell id="XYdIHO70fzB0IHr7sK7h-15" value="" style="endArrow=classic;html=1;rounded=0;fontSize=18;fontColor=#000000;entryX=0.411;entryY=-0.003;entryDx=0;entryDy=0;entryPerimeter=0;" edge="1" parent="1" source="XYdIHO70fzB0IHr7sK7h-10" target="XYdIHO70fzB0IHr7sK7h-13">
          <mxGeometry width="50" height="50" relative="1" as="geometry">
            <mxPoint x="572.5" y="420" as="sourcePoint" />
            <mxPoint x="585" y="380" as="targetPoint" />
          </mxGeometry>
        </mxCell>
      </root>
    </mxGraphModel>
  </diagram>
</mxfile>
